<?xml version="1.0" encoding="UTF-8" standalone="no"?>
<!-- Created with Inkscape (http://www.inkscape.org/) -->

<svg
   xmlns:dc="http://purl.org/dc/elements/1.1/"
   xmlns:cc="http://creativecommons.org/ns#"
   xmlns:rdf="http://www.w3.org/1999/02/22-rdf-syntax-ns#"
   xmlns:svg="http://www.w3.org/2000/svg"
   xmlns="http://www.w3.org/2000/svg"
   xmlns:sodipodi="http://sodipodi.sourceforge.net/DTD/sodipodi-0.dtd"
   xmlns:inkscape="http://www.inkscape.org/namespaces/inkscape"
   width="206"
   height="206"
   viewBox="0 0 54.504165 54.504168"
   version="1.1"
   id="svg4192"
   inkscape:version="0.92.2 2405546, 2018-03-11"
   sodipodi:docname="icon.svg">
  <defs
     id="defs4186" />
  <sodipodi:namedview
     id="base"
     pagecolor="#ffffff"
     bordercolor="#666666"
     borderopacity="1.0"
     inkscape:pageopacity="0.0"
     inkscape:pageshadow="2"
     inkscape:zoom="1.4"
     inkscape:cx="34.696665"
     inkscape:cy="61.94855"
     inkscape:document-units="mm"
     inkscape:current-layer="layer1"
     showgrid="false"
     fit-margin-top="0"
     fit-margin-left="0"
     fit-margin-right="0"
     fit-margin-bottom="0"
     inkscape:window-width="1896"
     inkscape:window-height="1028"
     inkscape:window-x="1612"
     inkscape:window-y="40"
     inkscape:window-maximized="1"
     inkscape:snap-global="false"
     units="px" />
  <metadata
     id="metadata4189">
    <rdf:RDF>
      <cc:Work
         rdf:about="">
        <dc:format>image/svg+xml</dc:format>
        <dc:type
           rdf:resource="http://purl.org/dc/dcmitype/StillImage" />
        <dc:title></dc:title>
      </cc:Work>
    </rdf:RDF>
  </metadata>
  <g
     inkscape:label="Layer 1"
     inkscape:groupmode="layer"
     id="layer1"
     transform="translate(-10.415629,-95.185361)">
    <path
       sodipodi:type="star"
       id="path324"
       sodipodi:sides="5"
       sodipodi:cx="40.851665"
       sodipodi:cy="122.49718"
       sodipodi:r1="28.425543"
       sodipodi:r2="13.645658"
       sodipodi:arg1="0.64350111"
       sodipodi:arg2="1.2718196"
       inkscape:flatsided="false"
       inkscape:rounded="0"
       inkscape:randomized="0"
       d="m 63.5921,139.5525 -18.721209,-4.01501 -13.212624,13.85751 -1.966668,-19.04563 -17.2622,-8.28375 17.50574,-7.75584 2.543998,-18.977143 12.785811,14.252263 18.834477,-3.44478 -9.603675,16.56422 z"
       inkscape:transform-center-x="2.3302146"
       inkscape:transform-center-y="-0.12011235"
       style="fill:#0c2577;fill-opacity:1;stroke-width:0.56851089" />
    <path
       style="fill:#ffffff;fill-rule:evenodd;stroke:none;stroke-width:0.29376894"
       inkscape:connector-curvature="0"
       d="m 36.77982,110.69294 c -0.547732,-0.33331 -1.170738,-0.57112 -1.838224,-0.62558 h -0.01853 c -0.989682,0.002 -1.55994,1.15221 -0.938645,1.92263 0.183053,0.22696 0.392908,0.43111 0.623292,0.6096 0.412581,-0.91098 1.202388,-1.61383 2.17211,-1.90665"
       id="Fill-20" />
    <path
       style="fill:#ffffff;fill-rule:evenodd;stroke:none;stroke-width:0.29376894"
       inkscape:connector-curvature="0"
       d="m 37.087046,110.89515 c -0.989966,0.2723 -1.802013,0.96715 -2.232557,1.88043 0.584799,0.38121 1.282509,0.60389 2.032682,0.60389 l 0.36354,-8.5e-4 c 0.794083,-0.002 1.373749,-0.94634 0.857666,-1.55025 -0.283703,-0.3316 -0.629278,-0.65493 -1.021331,-0.93322"
       id="Fill-22" />
    <path
       style="fill:#ffffff;fill-rule:evenodd;stroke:none;stroke-width:0.29376894"
       inkscape:connector-curvature="0"
       d="m 40.737521,123.58706 c 0.25576,0.22781 0.590501,0.37352 0.968582,0.38748 0.299385,0.0111 0.601051,0.0114 0.904999,5.6e-4 1.34324,-0.0473 2.629455,-0.30366 3.829848,-0.73591 1.163325,-0.41886 1.524299,-1.82968 0.800926,-2.78343 -1.727594,1.67142 -3.982392,2.80709 -6.504355,3.13129"
       id="Fill-24" />
    <path
       style="fill:#ffffff;fill-rule:evenodd;stroke:none;stroke-width:0.29376894"
       inkscape:connector-curvature="0"
       d="m 46.978845,120.15282 c -0.514372,-0.57767 -0.853675,-1.19184 -1.398271,-1.69965 -1.152775,-1.07493 -3.006682,-0.81519 -3.845245,0.51921 -0.653801,1.04044 -1.115139,1.84621 -1.456152,3.02523 -0.109777,0.37979 -0.06701,0.759 0.08412,1.0832 2.545914,-0.2435 4.837209,-1.31131 6.615557,-2.92799"
       id="Fill-27" />
    <path
       style="fill:#ffffff;fill-rule:evenodd;stroke:none;stroke-width:0.29376894"
       inkscape:connector-curvature="0"
       d="m 39.601768,115.08147 c 0.527488,0.0547 2.143882,0.2147 3.579219,-0.0927 0.370953,-0.0795 0.663496,-0.22753 0.883614,-0.47131 -0.459342,-0.88704 -1.192978,-1.60556 -2.086286,-2.04467 -0.415147,-0.20443 -0.902147,-0.20557 -1.311877,0.009 -0.921821,0.48357 -1.654602,1.26796 -2.082865,2.21573 0.126027,0.14171 0.401176,0.31934 1.018195,0.3835"
       id="Fill-29" />
    <path
       style="fill:#ffffff;fill-rule:evenodd;stroke:none;stroke-width:0.29376894"
       inkscape:connector-curvature="0"
       d="m 44.24007,114.89702 c -0.189611,0.24778 -0.509239,0.38463 -1.185566,0.51779 -1.589021,0.31279 -3.006967,0.14028 -3.494536,0.0716 -0.726224,-0.10204 -0.968868,-0.23181 -1.102308,-0.33559 0.01022,0.30565 0.220689,0.58736 0.538038,0.67261 1.061819,0.28599 2.177527,0.44025 3.329733,0.44025 0.427123,0 0.848828,-0.022 1.265116,-0.0638 0.550584,-0.0553 0.903287,-0.61845 0.713962,-1.13852 -0.02024,-0.0553 -0.0422,-0.10981 -0.06444,-0.16423"
       id="Fill-31" />
    <path
       style="fill:#ffffff;fill-rule:evenodd;stroke:none;stroke-width:0.29376894"
       inkscape:connector-curvature="0"
       d="m 39.352423,132.39185 c -1.638635,-1.71077 -3.688711,-1.94486 -4.504179,-1.96539 -0.234945,0.36098 -0.445371,0.73877 -0.629279,1.1314 -0.858237,1.8328 0.44366,3.95103 2.465223,4.04397 0.25291,0.0117 0.50867,0.0131 0.766141,0.004 0.12118,-0.004 0.241789,-0.0111 0.361544,-0.02 0.652944,-0.0485 1.281938,-0.22953 1.854761,-0.52121 0.651235,-1.03302 0.329894,-1.98563 -0.314211,-2.6728"
       id="Fill-33" />
    <path
       style="fill:#ffffff;fill-rule:evenodd;stroke:none;stroke-width:0.29376894"
       inkscape:connector-curvature="0"
       d="m 42.52984,129.08559 c -0.06273,-1.71932 -1.818836,-2.85756 -3.409855,-2.20347 -1.594724,0.65579 -2.961346,1.74042 -3.964999,3.10447 0.740194,0 3.058005,0.16282 4.889957,2.07546 0.588506,0.62813 0.921251,1.4667 0.553435,2.38824 0.242074,-0.20188 0.467041,-0.42655 0.669768,-0.67347 0.008,-0.01 0.01597,-0.0196 0.02395,-0.0294 0.659788,-0.8112 1.060964,-1.79545 1.172448,-2.83503 0.06415,-0.5982 0.08725,-1.20809 0.0653,-1.82682"
       id="Fill-36" />
  </g>
</svg>
